<svg xmlns="http://www.w3.org/2000/svg" viewBox="0 0 435 435">
  <defs>
    <linearGradient id="fade">
      <stop class="stop1" offset="0%" />
      <stop class="stop2" offset="50%" />
      <stop class="stop3" offset="100%" />
    </linearGradient>
  </defs>

  <style>
.line {
  fill: url(#fade);
}
.stop1 {
  stop-color: white;
  stop-opacity: 0;
}
.stop2 {
  stop-color: white;
  stop-opacity: .5;
}
.stop3 {
  stop-color: white;
}
  </style>

  <path fill="white" d="M 352.498 84.778 C 352.498 60.455 326.167 45.252 305.102 57.414 C 295.325 63.059 289.303 73.49 289.303 84.778 C 289.303 109.102 315.634 124.305 336.699 112.143 C 346.475 106.498 352.498 96.067 352.498 84.778 Z M 224.594 168.709 C 231.111 162.192 239.997 158.506 249.279 158.506 C 250.53 158.506 251.781 158.572 252.966 158.704 L 232.427 220.385 C 226.305 238.817 233.546 259.092 250.069 269.427 L 306.813 304.908 L 290.093 363.364 C 286.867 374.554 293.384 386.206 304.575 389.432 C 315.766 392.657 327.417 386.14 330.643 374.949 L 349.536 308.858 C 353.419 295.297 347.824 280.815 335.909 273.376 L 298.519 250.007 L 318.86 195.765 L 322.217 203.862 C 332.091 227.428 355.065 242.766 380.607 242.766 L 394.628 242.766 C 406.28 242.766 415.693 233.353 415.693 221.701 C 415.693 210.05 406.28 200.636 394.628 200.636 L 380.607 200.636 C 372.115 200.636 364.413 195.502 361.187 187.668 L 357.04 177.794 C 347.429 154.688 328.01 137.046 304.048 129.673 L 271.99 119.799 C 264.683 117.561 257.047 116.376 249.345 116.376 C 228.938 116.376 209.321 124.473 194.905 138.955 L 179.633 154.161 C 171.404 162.39 171.404 175.753 179.633 183.982 C 187.861 192.21 201.225 192.21 209.453 183.982 L 224.659 168.775 L 224.594 168.709 Z M 201.883 284.896 L 162.913 284.896 C 151.261 284.896 141.848 294.31 141.848 305.961 C 141.848 317.613 151.261 327.026 162.913 327.026 L 208.729 327.026 C 221.236 327.026 232.559 319.654 237.628 308.265 L 245.198 291.216 L 238.944 287.266 C 227.424 280.091 218.867 269.624 213.995 257.709 L 201.883 284.896 Z"></path>
  <rect class="line" x="61.23" y="75.04" width="182.224" height="11.669"></rect>
  <rect class="line" x="31.632" y="349.511" width="202.275" height="11.669"></rect>
  <rect class="line" x="21.141" y="204.304" width="160.92" height="11.669"></rect>

</svg>



