<?xml version="1.0" encoding="UTF-8" standalone="no"?>
<svg xmlns:svg="http://www.w3.org/2000/svg" 
   xmlns="http://www.w3.org/2000/svg" viewBox="0 -256 1792 1792" version="1.1" width="100%" height="100%">
   <g transform="matrix(1,0,0,-1,68.338983,1217.0847)">
      <path d="m 1611,320 q 0,-53 -37,-90 l -75,-75 q -38,-38 -91,-38 -54,0 -90,38 L 832,640 346,155 q -36,-38 -90,-38 -54,0 -90,38 l -75,75 q -38,36 -38,90 0,53 38,91 l 651,651 q 37,37 90,37 52,0 91,-37 l 650,-651 q 38,-38 38,-91 z" style="fill:currentColor" />
   </g>
</svg>
